<?xml version="1.0" encoding="utf-8"?>
<!-- Generator: Adobe Illustrator 22.1.0, SVG Export Plug-In . SVG Version: 6.00 Build 0)  -->
<svg version="1.1" id="Layer_1" xmlns="http://www.w3.org/2000/svg" xmlns:xlink="http://www.w3.org/1999/xlink" x="0px" y="0px"
	 viewBox="0 0 1549.7 152" style="enable-background:new 0 0 1549.7 152;" xml:space="preserve">
<style type="text/css">
	.st0{enable-background:new    ;}
	.st1{fill:#FFFFFF;}
</style>
<g class="st0">
	<path class="st1" d="M128,139.9H13V10.4h111.9c17.8,0,29.2,4.3,35.5,10.7c5.6,5.6,8.1,13,8.1,21.4c0,8.4-2,15.3-6.3,20.5
		c-3.5,4.3-9.4,7.6-15.7,8.4c9.2,1.2,18,5.8,22.9,12.2c4.1,4.8,6.1,12,6.1,19.6c0,8.9-2.5,17.7-7.4,23.4
		C160.5,135.9,146.3,139.9,128,139.9z M119.5,42.7c-2.3-2.1-6.6-3-12.9-3H56.3v21.1h51.5c5.6,0,9.9-0.8,12.2-3
		c1.6-1.8,2.6-4.5,2.6-7.6C122.6,47.2,121.6,44.5,119.5,42.7z M129.8,99.8c0-3.3-0.8-5.8-2.8-7.8c-2.5-2.1-6.8-3.1-14-3.1H56.3v21.6
		h56.3c7.8,0,12.4-1,15-3.5C129.2,105.4,129.8,102.9,129.8,99.8z"/>
	<path class="st1" d="M194.7,139.9V10.4h45.4v129.5H194.7z"/>
	<path class="st1" d="M265.6,139.9V10.4h44.7v95h78.9v34.5H265.6z"/>
	<path class="st1" d="M405.6,139.9V10.4h44.7v95h78.9v34.5H405.6z"/>
	<path class="st1" d="M546.8,139.9V10.4h45.4v129.5H546.8z"/>
	<path class="st1" d="M617.8,139.9V10.4h135.3v32.3h-91.7v16.7h89.1v31.5h-89.1v16.8h92.9v32.2H617.8z"/>
</g>
<g class="st0">
	<g>
		<path class="st1" d="M905.8,141.9H765.4V8.4h139.3v36.3H813v12.7H902v35.5H813v12.8h92.9V141.9z M769.4,137.9h132.4v-28.2H809
			V88.9H898V61.4H809V40.7h91.7V12.4H769.4V137.9z"/>
	</g>
	<g>
		<path class="st1" d="M972.3,141.9H923V8.4h49.4V141.9z M927,137.9h41.4V12.4H927V137.9z"/>
	</g>
	<g>
		<path class="st1" d="M1121.5,141.9H993.9V8.4h48.7v95h78.9V141.9z M997.9,137.9h119.6v-30.5h-78.9v-95h-40.7V137.9z"/>
	</g>
	<g>
		<path class="st1" d="M1184.5,141.9h-49.4V8.4h49.4V141.9z M1139.2,137.9h41.4V12.4h-41.4V137.9z"/>
	</g>
	<g>
		<path class="st1" d="M1281.5,143.9c-43.9,0-70.1-10.9-80-33.2c-2-4.7-2.8-10.3-3.3-13.4l-0.3-2.3h51.5l0.3,1.7
			c0.3,1.7,1.3,4.3,2.7,6c2.1,2.6,9.1,6.9,32.3,6.9c25.9,0,28-4.1,28-7.9c0-4.7-3.2-6.3-26.1-8.7l-4.2-0.4
			c-8.6-0.8-19.2-1.8-24.1-2.2c-41-3.7-59.2-16.4-59.2-41.1c0-26,31.2-42.8,79.4-42.8c39.4,0,64.7,10.4,75.4,30.8
			c3,5.6,4.5,11.5,5,15.2l0.3,2.2h-51.6l-0.2-1.8c-0.1-1.2-0.5-2.6-2.2-4.9c-3.5-4.6-13.4-7.2-27.8-7.2c-25.3,0-27.4,3.5-27.4,6.7
			c0,4.7,7.2,6.2,31.9,8.9c9.9,0.8,26,2.5,31.5,3.1c34.3,3.7,49.6,16.1,49.6,40.1C1362.9,136.2,1318.6,143.9,1281.5,143.9z
			 M1202.5,99c0.5,2.9,1.3,6.9,2.6,10.1c9.2,20.7,34.2,30.8,76.4,30.8c35.3,0,77.4-7,77.4-40.2c0-21.8-13.8-32.6-46.1-36.1
			c-5.5-0.7-21.5-2.3-31.5-3.1c-25.3-2.7-35.5-4.2-35.5-12.9c0-8,7.9-10.7,31.4-10.7c16.2,0,26.6,2.9,31,8.7
			c1.4,1.8,2.3,3.4,2.7,5.1h43.5c-0.7-3.2-2-7.5-4.2-11.6c-9.9-19-34-28.6-71.8-28.6c-45.8,0-75.4,15.2-75.4,38.8
			c0,22.5,16.6,33.6,55.6,37.1c4.9,0.4,15.6,1.4,24.1,2.2l4.3,0.4c20.6,2.2,29.7,3.5,29.7,12.7c0,8.8-8.4,11.9-32,11.9
			c-18.9,0-30.8-2.8-35.4-8.3c-1.5-1.8-2.6-4.2-3.2-6.2H1202.5z"/>
	</g>
	<g>
		<path class="st1" d="M1536.6,141.9h-48.2v-47h-62.3v47h-48.2V8.4h48.2v47.2h62.3V8.4h48.2V141.9z M1492.4,137.9h40.2V12.4h-40.2
			v47.2h-70.3V12.4h-40.2v125.5h40.2v-47h70.3V137.9z"/>
	</g>
</g>
</svg>
