<?xml version="1.0" encoding="utf-8"?>
<!-- Generator: Adobe Illustrator 22.1.0, SVG Export Plug-In . SVG Version: 6.00 Build 0)  -->
<svg version="1.1" id="Layer_1" xmlns="http://www.w3.org/2000/svg" xmlns:xlink="http://www.w3.org/1999/xlink" x="0px" y="0px"
	 viewBox="0 0 1549.7 152" style="enable-background:new 0 0 1549.7 152;" xml:space="preserve">
<style type="text/css">
	.st0{enable-background:new    ;}
	.st1{fill:#FFFFFF;}
</style>
<g class="st0">
	<g>
		<path class="st1" d="M128,141.9H11V8.4h113.9c16.9,0,29.7,3.9,36.9,11.3c5.7,5.7,8.7,13.4,8.7,22.8c0,9.1-2.3,16.4-6.7,21.7
			c-2.3,2.9-5.6,5.3-9.3,6.9c6.7,2.3,12.7,6.2,16.5,11.2c4.2,4.9,6.6,12.3,6.6,20.9c0,9.9-2.9,18.9-7.9,24.7
			C162.1,137.2,148.1,141.9,128,141.9z M15,137.9h113c18.8,0,31.8-4.2,38.5-12.5c4.4-5.2,7-13.2,7-22.2c0-7.5-2-14.2-5.6-18.3
			l-0.1-0.1c-4.6-6-12.9-10.4-21.6-11.4l-15.5-1.9l15.5-2c5.6-0.7,11.1-3.7,14.4-7.7c3.9-4.6,5.8-11.1,5.8-19.2
			c0-8.3-2.5-15.1-7.5-20c-6.5-6.6-18.2-10.1-34.1-10.1H15V137.9z M112.5,112.5H54.3V86.9H113c7.7,0,12.4,1.1,15.3,3.6l0.1,0.1
			c2.3,2.3,3.4,5.2,3.4,9.2c0,3.9-0.9,6.7-2.9,8.7C125.9,111.3,121,112.5,112.5,112.5z M58.3,108.5h54.3c7.3,0,11.5-0.9,13.6-2.9
			c1.1-1.1,1.7-3,1.7-5.8c0-2.8-0.7-4.8-2.2-6.3c-2.1-1.8-6.1-2.6-12.7-2.6H58.3V108.5z M107.7,62.8H54.3V37.7h52.3
			c7.2,0,11.6,1.1,14.2,3.5c2.5,2.1,3.8,5.3,3.8,9.1c0,3.5-1.1,6.7-3.2,8.9l-0.1,0.1C118.7,61.7,114.4,62.8,107.7,62.8z M58.3,58.8
			h49.5c5.4,0,9-0.8,10.8-2.4c1.3-1.5,2.1-3.7,2.1-6.2c0-2.7-0.8-4.7-2.4-6.1l-0.1-0.1c-1.8-1.6-5.5-2.4-11.5-2.4H58.3V58.8z"/>
	</g>
	<g>
		<path class="st1" d="M242.1,141.9h-49.4V8.4h49.4V141.9z M196.7,137.9h41.4V12.4h-41.4V137.9z"/>
	</g>
	<g>
		<path class="st1" d="M391.2,141.9H263.6V8.4h48.7v95h78.9V141.9z M267.6,137.9h119.6v-30.5h-78.9v-95h-40.7V137.9z"/>
	</g>
	<g>
		<path class="st1" d="M531.1,141.9H403.6V8.4h48.7v95h78.9V141.9z M407.6,137.9h119.6v-30.5h-78.9v-95h-40.7V137.9z"/>
	</g>
	<g>
		<path class="st1" d="M594.2,141.9h-49.4V8.4h49.4V141.9z M548.8,137.9h41.4V12.4h-41.4V137.9z"/>
	</g>
	<g>
		<path class="st1" d="M756.2,141.9H615.8V8.4h139.3v36.3h-91.7v12.7h89.1v35.5h-89.1v12.8h92.9V141.9z M619.8,137.9h132.5v-28.2
			h-92.9V88.9h89.1V61.4h-89.1V40.7h91.7V12.4H619.8V137.9z"/>
	</g>
</g>
<g class="st0">
	<g>
		<path class="st1" d="M767.4,139.9V10.4h135.3v32.3H811v16.7H900v31.5H811v16.8h92.9v32.2H767.4z"/>
	</g>
	<g>
		<path class="st1" d="M925,139.9V10.4h45.4v129.5H925z"/>
	</g>
	<g>
		<path class="st1" d="M995.9,139.9V10.4h44.7v95h78.9v34.5H995.9z"/>
	</g>
	<g>
		<path class="st1" d="M1137.2,139.9V10.4h45.4v129.5H1137.2z"/>
	</g>
	<g>
		<path class="st1" d="M1281.5,141.9c-49,0-70.1-13.9-78.2-32c-1.8-4.3-2.6-9.6-3.1-12.9h47.5c0.3,2,1.5,5,3.1,6.9
			c4,4.8,15,7.6,33.8,7.6c24.3,0,30-3.5,30-9.9c0-6.9-5.9-8.4-27.9-10.7c-8.7-0.8-22.6-2.1-28.4-2.6c-41.9-3.8-57.4-16.8-57.4-39.1
			c0-23.1,27.4-40.8,77.4-40.8c44.4,0,65,13.2,73.6,29.7c2.6,5,4.3,10.6,4.8,14.5h-47.5c-0.2-1.8-0.8-3.6-2.6-5.9
			c-3.6-4.8-12.9-7.9-29.4-7.9c-23.3,0-29.4,2.8-29.4,8.7c0,6.6,7.8,8.1,33.7,10.9c10.1,0.8,26.1,2.5,31.5,3.1
			c33.5,3.6,47.8,15.5,47.8,38.1C1360.9,127,1334.2,141.9,1281.5,141.9z"/>
	</g>
	<g>
		<path class="st1" d="M1490.4,139.9v-47h-66.3v47h-44.2V10.4h44.2v47.2h66.3V10.4h44.2v129.5H1490.4z"/>
	</g>
</g>
</svg>
