<?xml version="1.0" encoding="utf-8"?>
<!-- Generator: Adobe Illustrator 22.1.0, SVG Export Plug-In . SVG Version: 6.00 Build 0)  -->
<svg version="1.1" id="Layer_1" xmlns="http://www.w3.org/2000/svg" xmlns:xlink="http://www.w3.org/1999/xlink" x="0px" y="0px"
	 viewBox="0 0 1666 140" style="enable-background:new 0 0 1666 140;" xml:space="preserve">
<style type="text/css">
	.st0{fill:#FFFFFF;}
</style>
<path class="st0" d="M162.6,124c5.2-6.1,7.8-15.2,7.8-24.6c0-8-2.1-15.6-6.4-20.6c-5.2-6.7-14.4-11.6-24-12.8
	c6.6-0.9,12.8-4.3,16.4-8.8c4.5-5.4,6.6-12.6,6.6-21.4s-2.6-16.6-8.5-22.5C147.9,6.6,136,2.1,117.3,2.1H0v135.8h120.6
	C139.8,137.9,154.7,133.7,162.6,124z M114.9,44c0,3.3-1,6.1-2.8,8c-2.4,2.2-6.9,3.1-12.8,3.1h-54V32.9h52.8c6.6,0,11.1,0.9,13.5,3.1
	C113.8,37.9,114.9,40.7,114.9,44z M120.1,103.5c-2.8,2.6-7.6,3.6-15.7,3.6h-59V84.4h59.5c7.6,0,12.1,1,14.7,3.3
	c2.1,2.1,2.9,4.7,2.9,8.1C122.5,99.1,121.8,101.7,120.1,103.5z"/>
<path class="st0" d="M243.3,137.9V2.1h-47.6v135.8H243.3z"/>
<path class="st0" d="M404.9,137.9v-36.2h-82.7V2.1h-46.9v135.8H404.9z"/>
<path class="st0" d="M556.8,137.9v-36.2h-82.7V2.1h-46.9v135.8H556.8z"/>
<path class="st0" d="M628.2,137.9V2.1h-47.6v135.8H628.2z"/>
<path class="st0" d="M803.3,137.9v-33.8h-97.4V86.5h93.4v-33h-93.4V36h96.2V2.1H660.2v135.8H803.3z"/>
<g>
	<path class="st0" d="M973.2,6.1V32H881h-4v4v17.5v4h4h89.4v25H881h-4v4v17.6v4h4h93.4v25.7H839.3V6.1H973.2 M977.2,2.1H835.3v135.8
		h143.1v-33.8H881V86.5h93.4v-33H881V36h96.2V2.1L977.2,2.1z"/>
	<path class="st0" d="M1049.3,6.1v127.8h-39.6V6.1H1049.3 M1053.3,2.1h-47.6v135.8h47.6V2.1L1053.3,2.1z"/>
	<path class="st0" d="M1128.2,6.1v95.6v4h4h78.7v28.1h-121.6V6.1H1128.2 M1132.2,2.1h-46.9v135.8h129.6v-36.2h-82.7V2.1L1132.2,2.1z
		"/>
	<path class="st0" d="M1282.3,6.1v127.8h-39.6V6.1H1282.3 M1286.3,2.1h-47.6v135.8h47.6V2.1L1286.3,2.1z"/>
	<path class="st0" d="M1392,4c38.8,0,63.6,9.7,73.6,29c1.7,3.2,2.9,6.5,3.7,9.3h-41.8c-0.6-1.6-1.5-3.1-2.7-4.7
		c-5-6.5-16.4-9.9-34-9.9c-12.6,0-20.6,0.8-25.8,2.4c-6,1.9-9,5.6-9,10.7c0,11.2,13,12.6,38.9,15.4h0.1h0.1
		c10.4,0.9,27.1,2.6,32.9,3.3l0,0l0,0c16.9,1.8,28.7,5.6,36.2,11.7c7.1,5.7,10.4,13.4,10.4,24.3c0,13-6.2,22.6-18.8,29.4
		c-13.4,7.2-33.8,10.9-60.4,10.9c-23.4,0-42.1-3.1-55.4-9.3c-11.1-5.1-18.6-12.3-22.9-21.9c-1-2.4-1.7-5.3-2.2-7.9h42.1
		c0.7,2,1.8,4.1,3.2,5.8c5.2,6.3,17.8,9.4,38.5,9.4c21.9,0,35.5-2.4,35.5-14.4c0-11.8-12.4-13.1-32.9-15.2l-4.7-0.4
		c-8.9-0.8-20-1.9-25.1-2.3c-20.9-1.9-35.5-6-44.6-12.5c-8.2-5.8-11.9-13.6-11.9-24.5c0-10.8,6.5-20.1,18.9-26.9
		C1347.5,8.1,1367.7,4,1392,4 M1392,0c-52.4,0-81.1,18.5-81.1,42.7c0,23.3,16.3,37,60.2,41c6.1,0.5,20.6,1.9,29.8,2.8
		c23,2.4,29.2,4,29.2,11.2c0,6.7-6.1,10.4-31.5,10.4c-19.7,0-31.3-2.9-35.5-8c-1.7-2.1-2.9-5.2-3.3-7.3H1310c0.5,3.5,1.4,9,3.3,13.5
		c8.5,19,30.6,33.6,82,33.6c55.2,0,83.2-15.6,83.2-44.3c0-23.7-15.1-36.1-50.2-40c-5.7-0.7-22.5-2.4-33-3.3
		c-27.2-2.9-35.3-4.5-35.3-11.4c0-6.2,6.4-9.2,30.8-9.2c17.3,0,27,3.3,30.8,8.3c1.9,2.4,2.6,4.3,2.8,6.2h49.8
		c-0.5-4.2-2.2-10-5-15.2C1460.2,13.9,1438.5,0,1392,0L1392,0z"/>
	<path class="st0" d="M1661.9,6.1v127.8h-38.4V88.6v-4h-4H1550h-4v4v45.3h-38.4V6.1h38.4v45.5v4h4h69.5h4v-4V6.1H1661.9 M1665.9,2.1
		h-46.4v49.5H1550V2.1h-46.4v135.8h46.4V88.6h69.5v49.3h46.4V2.1L1665.9,2.1z"/>
</g>
</svg>
