<?xml version="1.0" encoding="utf-8"?>
<!-- Generator: Adobe Illustrator 22.1.0, SVG Export Plug-In . SVG Version: 6.00 Build 0)  -->
<svg version="1.1" id="Layer_1" xmlns="http://www.w3.org/2000/svg" xmlns:xlink="http://www.w3.org/1999/xlink" x="0px" y="0px"
	 viewBox="0 0 991.8 319.7" style="enable-background:new 0 0 991.8 319.7;" xml:space="preserve">
<style type="text/css">
	.st0{fill:#FFFFFF;}
</style>
<g>
	<g>
		<path class="st0" d="M94.5,148.8c-51.1,0-73.1-14.4-81.5-33.4c-1.9-4.5-2.8-10-3.3-13.4h49.5c0.3,2.1,1.5,5.2,3.3,7.2
			c4.1,5,15.7,7.9,35.3,7.9c25.3,0,31.3-3.6,31.3-10.3c0-7.2-6.2-8.8-29.1-11.2c-9.1-0.9-23.6-2.2-29.6-2.8
			c-43.7-4-59.9-17.5-59.9-40.8c0-24.1,28.6-42.5,80.7-42.5c46.3,0,67.8,13.8,76.7,31c2.8,5.2,4.5,11,5,15.1h-49.5
			c-0.2-1.9-0.9-3.8-2.8-6.2c-3.8-5-13.4-8.3-30.6-8.3c-24.3,0-30.6,2.9-30.6,9.1c0,6.9,8.1,8.4,35.1,11.4
			c10.5,0.9,27.2,2.6,32.9,3.3c34.9,3.8,49.9,16.2,49.9,39.7C177.2,133.4,149.3,148.8,94.5,148.8z"/>
	</g>
	<g>
		<path class="st0" d="M276.9,148.7c-46.8,0-80.3-17.4-80.3-58.3c0-6.2,0-78.6,0-78.6h46.6c0,0,0,76.2,0,78.6
			c0,14.6,12.6,23.7,35.6,23.7c22,0,35.1-9.5,35.1-23.6c0-2.4,0-78.8,0-78.8H360c0,0,0,77.6,0,82.9C360,131.1,327,148.7,276.9,148.7
			z"/>
	</g>
	<g>
		<path class="st0" d="M506.4,146.8H386.5v-135h116.6c18.6,0,30.4,4.5,37,11.2c5.8,5.8,8.4,13.6,8.4,22.4s-2.1,16-6.5,21.3
			c-3.6,4.5-9.8,7.9-16.3,8.8c9.6,1.2,18.7,6,23.9,12.7c4.3,5,6.4,12.6,6.4,20.5c0,9.3-2.6,18.4-7.7,24.4
			C540.3,142.7,525.5,146.8,506.4,146.8z M497.4,45.5c-2.4-2.2-6.9-3.1-13.4-3.1h-52.5v22h53.7c5.8,0,10.3-0.9,12.7-3.1
			c1.7-1.9,2.8-4.6,2.8-7.9S499.7,47.4,497.4,45.5z M508.3,105c0-3.4-0.9-6-2.9-8.1c-2.6-2.2-7.1-3.3-14.6-3.3h-59.2v22.5h58.7
			c8.1,0,12.9-1,15.7-3.6C507.6,110.8,508.3,108.3,508.3,105z"/>
	</g>
</g>
<g>
	<g>
		<path class="st0" d="M95.5,309c-45.7,0-73-11.3-83.4-34.6c-2.1-4.9-2.9-10.8-3.4-13.9l-0.3-2.3h53.6l0.3,1.7
			c0.3,1.8,1.4,4.5,2.8,6.3c2.2,2.7,9.6,7.2,33.7,7.2c27,0,29.3-4.3,29.3-8.3c0-5-3.4-6.7-27.3-9.2l-4.5-0.4
			c-8.9-0.8-20-1.9-25.1-2.3c-42.7-3.9-61.7-17-61.7-42.8c0-27,32.4-44.5,82.7-44.5c41,0,67.4,10.8,78.5,32c3.1,5.8,4.7,12,5.2,15.8
			l0.3,2.2h-53.6l-0.2-1.8c-0.1-1.2-0.5-2.8-2.3-5.1c-3.7-4.8-14-7.5-29-7.5c-23.7,0-28.6,2.8-28.6,7.1c0,4.7,5.9,6.4,33.3,9.4
			c10.3,0.8,27.1,2.6,32.9,3.3c35.7,3.9,51.6,16.7,51.6,41.7C180.2,301,134.1,309,95.5,309z M13,262.2c0.5,3.1,1.3,7.2,2.8,10.6
			c9.6,21.6,35.7,32.1,79.7,32.1c36.8,0,80.7-7.3,80.7-42c0-22.8-14.4-34.1-48.1-37.7c-5.8-0.7-22.4-2.4-32.8-3.3
			c-26.3-2.8-36.9-4.4-36.9-13.3c0-8.3,8.2-11.1,32.6-11.1c16.8,0,27.7,3,32.2,9c1.5,1.9,2.4,3.6,2.8,5.4h45.5
			c-0.7-3.4-2.1-7.9-4.4-12.2c-10.3-19.8-35.5-29.9-74.9-29.9c-47.8,0-78.7,15.9-78.7,40.5c0,23.5,17.4,35.1,58,38.8
			c5.1,0.4,16.2,1.5,25.1,2.3l4.5,0.4c21.4,2.3,30.9,3.7,30.9,13.2c0,9.1-8.7,12.3-33.3,12.3c-19.7,0-32.1-2.9-36.8-8.6
			c-1.6-1.9-2.7-4.4-3.3-6.5H13z"/>
	</g>
	<g>
		<path class="st0" d="M279.5,309c-36.9,0-62.8-8.8-77.2-26.2c-9.4-11-14.2-26.4-14.2-45.7c0-17.9,4.5-32.4,13.4-43.2
			c15-18.7,41.6-28.3,78.9-28.3c31.4,0,71.5,7,84.9,40.3c3.2,8.3,3.8,17.4,3.9,19.9l0.1,2.1h-51.8l-0.1-1.9c-0.2-3-1.4-6.5-3.1-8.9
			c-5.3-7.7-17.2-11.7-34.5-11.7c-17.9,0-30.3,4.6-35.8,13.2c-2.7,4-4,10.3-4,19c0,8.7,1.4,14.8,4.5,19.1
			c3.3,4.8,12.2,12.9,35.5,12.9c18.2,0,30-3.7,35-11c1.7-2.4,2.6-5.3,2.7-8.9l0.1-1.9h51.9l-0.2,2.2c-0.5,4.7-1.6,14.6-5.2,21.6
			C352.5,297.1,325.5,309,279.5,309z M280.4,169.7c-36.1,0-61.6,9-75.8,26.8c-8.3,10.1-12.5,23.8-12.5,40.7
			c0,18.3,4.5,32.8,13.3,43.1c13.6,16.4,38.6,24.8,74.2,24.8c44.3,0,70.1-11.1,81.3-35l0-0.1c2.8-5.5,4-13.2,4.5-18.1h-43.7
			c-0.4,3.6-1.5,6.6-3.3,9.1c-5.8,8.4-18.7,12.7-38.3,12.7c-10.8,0-30.2-1.9-38.8-14.6c-3.5-5-5.2-11.8-5.2-21.4
			c0-9.6,1.5-16.6,4.6-21.2c6.2-9.8,19.8-15,39.2-15c13,0,30.1,2.3,37.8,13.4c1.8,2.5,3.1,5.9,3.6,9.1h43.9
			c-0.3-3.7-1.1-10.4-3.5-16.5C351.6,182.7,323.6,169.7,280.4,169.7z"/>
	</g>
	<g>
		<path class="st0" d="M563,306.9h-56.3l-33.5-47.6h-38.8v47.6h-49.9v-139H494c20.8,0,35.8,4.8,44.8,14.4c6.6,6.8,9.7,15.9,9.7,28.7
			c0,10.6-2.6,20.1-7.3,26.6l0,0c-5.1,6.9-11.9,11.6-19.5,13.6L563,306.9z M508.8,302.9H555l-40.4-54.5l3.3-0.5
			c10.5-1.6,17-8.6,20-12.6c4.2-5.9,6.5-14.5,6.5-24.3c0-11.7-2.7-20-8.5-26c-8.2-8.7-22.3-13.2-41.9-13.2H388.5v131h41.9v-47.6
			h44.8L508.8,302.9z M486.6,229.2h-56v-28.6h55.1c6.5,0,13,0.8,16.2,6.6c1.2,1.8,1.8,4.5,1.8,8.1c0,2.2-0.3,5.4-1.8,8
			C499.3,228.5,492.3,229.2,486.6,229.2z M434.6,225.2h52c6.8,0,10.5-1.2,11.8-3.7l0.1-0.1c0.8-1.4,1.3-3.6,1.3-6
			c0-2.7-0.4-4.8-1.2-5.9l-0.1-0.2c-1.8-3.3-5.3-4.6-12.7-4.6h-51.1V225.2z"/>
	</g>
	<g>
		<path class="st0" d="M623.3,306.9H572v-139h51.3V306.9z M576,302.9h43.3v-131H576V302.9z"/>
	</g>
	<g>
		<path class="st0" d="M767.8,306.9H645.9v-139h118.6c17.6,0,30.9,4.1,38.4,11.8c6,6,9,14,9,23.8c0,9.5-2.4,17.1-7,22.6
			c-2.4,3-5.9,5.5-9.8,7.3c7.1,2.3,13.4,6.5,17.4,11.7c4.4,5.1,6.8,12.8,6.8,21.7c0,10.3-3,19.6-8.2,25.7
			C803.2,302,788.7,306.9,767.8,306.9z M649.9,302.9h117.9c19.6,0,33.1-4.4,40.2-13c4.6-5.4,7.3-13.8,7.3-23.2
			c0-7.8-2.1-14.8-5.9-19.2l-0.1-0.1c-4.8-6.2-13.4-10.8-22.6-12l0-4c5.9-0.8,11.7-3.9,15-8c4-4.8,6.1-11.6,6.1-20.1
			c0-8.7-2.6-15.7-7.8-20.9c-6.8-6.9-19.1-10.6-35.6-10.6H649.9V302.9z M751.6,276.3H691v-26.5h61.2c8,0,12.9,1.2,15.9,3.8l0.1,0.1
			c2.4,2.4,3.5,5.4,3.5,9.5c0,4-1,7-3,9C765.5,275.1,760.5,276.3,751.6,276.3z M695,272.3h56.7c7.6,0,12-0.9,14.3-3.1
			c1.2-1.2,1.8-3.2,1.8-6.1c0-3-0.7-5-2.3-6.6c-2.2-1.9-6.4-2.7-13.3-2.7H695V272.3z M746.6,224.5H691v-26h54.5
			c7.5,0,12,1.1,14.7,3.6c2.6,2.2,3.9,5.5,3.9,9.4c0,3.6-1.2,6.9-3.3,9.3l-0.1,0.1C758.1,223.4,753.6,224.5,746.6,224.5z M695,220.5
			h51.7c5.6,0,9.5-0.8,11.3-2.5c1.4-1.6,2.2-3.9,2.2-6.5c0-2.8-0.9-4.9-2.6-6.4l-0.1-0.1c-1.9-1.7-5.8-2.6-12.1-2.6H695V220.5z"/>
	</g>
	<g>
		<path class="st0" d="M981.4,306.9H835.1v-139h145v37.7h-95.6V219h92.9v36.9h-92.9v13.5h96.8V306.9z M839.1,302.9h138.2v-29.5
			h-96.8v-21.5h92.9V223h-92.9v-21.4h95.6v-29.7h-137V302.9z"/>
	</g>
</g>
</svg>
