<svg id="Layer_1" data-name="Layer 1" xmlns="http://www.w3.org/2000/svg" viewBox="0 0 1527.77 144.11"><defs><style>.cls-1{fill:#fff;}</style></defs><title>subscribe</title><path class="cls-1" d="M84.74,141.68c-51,0-73-14.44-81.47-33.35C1.38,103.86.52,98.36,0,94.92H49.51a16.82,16.82,0,0,0,3.26,7.22c4.13,5,15.64,7.91,35.24,7.91,25.27,0,31.29-3.61,31.29-10.32,0-7.22-6.19-8.76-29-11.17-9.11-.86-23.55-2.24-29.57-2.75C17,81.85.86,68.28.86,45.07.86,21,29.39,2.61,81.48,2.61c46.24,0,67.73,13.75,76.66,30.94a47.18,47.18,0,0,1,5,15.13H113.62a11.31,11.31,0,0,0-2.75-6.19c-3.78-5-13.41-8.25-30.59-8.25-24.24,0-30.6,2.92-30.6,9.11,0,6.88,8.08,8.42,35.06,11.35,10.49.86,27.16,2.57,32.84,3.26,34.89,3.78,49.85,16.16,49.85,39.71C167.43,126.2,139.58,141.68,84.74,141.68Z"/><path class="cls-1" d="M267.13,141.5c-46.75,0-80.27-17.36-80.27-58.27V4.67h46.58V83.23C233.44,97.84,246,107,269,107c22,0,35.06-9.45,35.06-23.55V4.67h46.07V87.53C350.16,124,317.16,141.5,267.13,141.5Z"/><path class="cls-1" d="M496.45,139.61H376.64V4.67H493.19c18.56,0,30.42,4.47,36.95,11.18,5.85,5.84,8.43,13.58,8.43,22.34s-2.07,16-6.54,21.32a25.91,25.91,0,0,1-16.33,8.77c9.63,1.2,18.74,6,23.9,12.72,4.3,5,6.36,12.54,6.36,20.45,0,9.28-2.58,18.39-7.74,24.41C530.32,135.49,515.53,139.61,496.45,139.61ZM487.51,38.37c-2.4-2.24-6.87-3.1-13.4-3.1H421.68v22h53.63c5.84,0,10.31-.86,12.72-3.09a11.59,11.59,0,0,0,2.75-7.91A9.87,9.87,0,0,0,487.51,38.37Zm10.83,59.47c0-3.44-.86-6-2.92-8.08-2.58-2.23-7.05-3.26-14.61-3.26H421.68V109h58.61c8.08,0,12.9-1,15.65-3.61C497.66,103.69,498.34,101.11,498.34,97.84Z"/><path class="cls-1" d="M642.4,143.68c-45.71,0-72.95-11.3-83.31-34.54-2.05-4.86-2.94-10.76-3.41-13.92l-.35-2.3h53.52l.28,1.67a14.91,14.91,0,0,0,2.83,6.27c2.23,2.69,9.56,7.19,33.71,7.19,27,0,29.28-4.3,29.28-8.32,0-5-3.39-6.67-27.26-9.18l-3.91-.37c-9.09-.86-20.42-1.93-25.62-2.38-42.64-3.86-61.65-17-61.65-42.73,0-27,32.43-44.46,82.62-44.46,41,0,67.4,10.77,78.44,32a49,49,0,0,1,5.2,15.8l.28,2.25h-53.6l-.16-1.82A9.25,9.25,0,0,0,667,43.73c-3.68-4.84-14-7.49-29-7.49-23.73,0-28.6,2.84-28.6,7.11,0,4.73,5.91,6.39,33.28,9.36,10.32.84,27.07,2.56,32.86,3.27,35.69,3.86,51.61,16.72,51.61,41.69C727.08,135.69,681,143.68,642.4,143.68ZM560,96.92a49.33,49.33,0,0,0,2.77,10.63c9.63,21.6,35.68,32.13,79.64,32.13,36.81,0,80.68-7.29,80.68-42C723.08,74.88,708.71,63.6,675,60c-5.79-.7-22.46-2.41-32.78-3.26-25.36-2.75-36.91-4-36.91-13.34,0-8.31,8.23-11.11,32.6-11.11,16.81,0,27.64,3,32.19,9a14.5,14.5,0,0,1,2.84,5.4h45.47A46.37,46.37,0,0,0,714,34.49c-10.31-19.83-35.51-29.88-74.9-29.88-47.76,0-78.62,15.88-78.62,40.46,0,23.48,17.35,35.07,58,38.75,5.21.44,16.54,1.52,25.65,2.38l3.93.37C669.5,88.82,679,90.22,679,99.73c0,9.09-8.71,12.32-33.28,12.32-19.67,0-32-2.91-36.78-8.64a18.46,18.46,0,0,1-3.32-6.49Z"/><path class="cls-1" d="M826.34,143.68c-36.84,0-62.8-8.81-77.18-26.17-9.42-11-14.21-26.38-14.21-45.62,0-17.87,4.49-32.41,13.35-43.21C763.28,9.94,789.83.44,827.19.44c31.35,0,71.51,7,84.89,40.27A66.64,66.64,0,0,1,916,60.63l.08,2.08H864.32l-.1-1.89a18.39,18.39,0,0,0-3.08-8.92c-5.29-7.67-17.2-11.71-34.46-11.71-17.93,0-30.3,4.56-35.79,13.17-2.69,4-4,10.25-4,19s1.41,14.82,4.45,19.13c3.25,4.84,12.16,12.91,35.49,12.91,18.19,0,29.95-3.7,35-11a16.32,16.32,0,0,0,2.74-8.93l.09-1.9h51.92l-.24,2.21c-.5,4.73-1.55,14.55-5.17,21.64C899.29,131.85,872.34,143.68,826.34,143.68Zm.85-139.24c-36.08,0-61.58,9-75.79,26.75C743.14,41.28,739,55,739,71.89c0,18.26,4.47,32.74,13.27,43,13.6,16.43,38.53,24.75,74.12,24.75,44.28,0,70.08-11.11,81.21-34.95l0-.07c2.82-5.5,4-13.15,4.53-18H868.4a19.32,19.32,0,0,1-3.3,9.12c-5.79,8.42-18.67,12.71-38.25,12.71-10.81,0-30.23-1.9-38.79-14.64-3.51-5-5.15-11.8-5.15-21.4s1.51-16.54,4.63-21.22c6.23-9.79,19.77-15,39.14-15,13,0,30.09,2.33,37.74,13.42a22.19,22.19,0,0,1,3.59,9.1h43.87a60.39,60.39,0,0,0-3.52-16.52C898.44,17.5,870.37,4.44,827.19,4.44Z"/><path class="cls-1" d="M1109.64,141.61h-56.23L1019.89,94H981.16v47.61h-49.9V2.67H1040.7c20.74,0,35.8,4.84,44.77,14.39,6.58,6.76,9.66,15.88,9.66,28.7,0,10.61-2.58,20.05-7.25,26.6l0,0a35.24,35.24,0,0,1-19.45,13.56Zm-54.15-4h46.22l-40.36-54.49,3.29-.49c10.47-1.58,17-8.57,20-12.61,4.19-5.87,6.5-14.49,6.5-24.26,0-11.71-2.72-19.95-8.55-25.94-8.2-8.73-22.29-13.15-41.88-13.15H935.26V137.61h41.9V90H1022Zm-22.18-73.69h-56V35.33h55.12c6.5,0,12.94.81,16.14,6.63,1.23,1.81,1.85,4.53,1.85,8.09a16.68,16.68,0,0,1-1.79,8C1046,63.25,1039.06,63.92,1033.31,63.92Zm-52-4h52c6.78,0,10.52-1.18,11.79-3.71l.06-.11a12.48,12.48,0,0,0,1.28-6.05c0-2.71-.43-4.8-1.19-5.9l-.12-.2c-1.79-3.32-5.35-4.62-12.68-4.62H981.33Z"/><path class="cls-1" d="M1169.91,141.61h-51.27V2.67h51.27Zm-47.27-4h43.27V6.67h-43.27Z"/><path class="cls-1" d="M1314.37,141.61H1192.56V2.67H1311.1c17.61,0,30.89,4.08,38.39,11.78,6,6,9,14,9,23.74,0,9.46-2.35,17.07-7,22.6a26.2,26.2,0,0,1-9.8,7.27c7.09,2.33,13.38,6.49,17.39,11.67,4.39,5.12,6.81,12.83,6.81,21.72,0,10.25-3,19.62-8.22,25.71C1349.79,136.74,1335.22,141.61,1314.37,141.61Zm-117.81-4h117.81c19.59,0,33.13-4.38,40.23-13,4.63-5.41,7.28-13.83,7.28-23.14,0-7.84-2.15-14.82-5.88-19.15l-.07-.08c-4.8-6.24-13.44-10.82-22.55-12l0-4a23.83,23.83,0,0,0,15-8c4-4.82,6.08-11.56,6.08-20.06,0-8.69-2.63-15.73-7.83-20.93-6.76-6.93-19-10.59-35.55-10.59H1196.56ZM1298.21,111h-60.62V84.5h61.14c8,0,12.92,1.15,15.92,3.75l.1.1c2.4,2.39,3.51,5.41,3.51,9.49s-1,7-3,9C1312.12,109.77,1307,111,1298.21,111Zm-56.62-4h56.62c7.61,0,12-.94,14.28-3.06,1.18-1.18,1.77-3.2,1.77-6.11s-.7-5-2.28-6.61c-2.21-1.87-6.42-2.73-13.25-2.73h-57.14Zm51.64-47.74h-55.64v-26H1292c7.48,0,12,1.11,14.74,3.6a11.88,11.88,0,0,1,3.94,9.4,13.62,13.62,0,0,1-3.27,9.25l-.12.12C1304.64,58.12,1300.17,59.27,1293.23,59.27Zm-51.64-4h51.64c5.64,0,9.44-.84,11.3-2.5a9.72,9.72,0,0,0,2.17-6.5,7.93,7.93,0,0,0-2.56-6.38l-.07-.06c-1.85-1.72-5.79-2.56-12-2.56h-50.43Z"/><path class="cls-1" d="M1527.81,141.61H1381.65V2.67h145v37.7H1431V53.73h92.83V90.56H1431v13.53h96.78Zm-142.16-4h138.16V108.09H1427V86.56h92.83V57.73H1427V36.37h95.58V6.67h-137Z"/></svg>