<?xml version="1.0" encoding="utf-8"?>
<!-- Generator: Adobe Illustrator 22.1.0, SVG Export Plug-In . SVG Version: 6.00 Build 0)  -->
<svg version="1.1" id="Layer_1" xmlns="http://www.w3.org/2000/svg" xmlns:xlink="http://www.w3.org/1999/xlink" x="0px" y="0px"
	 viewBox="0 0 991.8 319.7" style="enable-background:new 0 0 991.8 319.7;" xml:space="preserve">
<style type="text/css">
	.st0{fill:#FFFFFF;}
</style>
<g>
	<g>
		<path class="st0" d="M94.5,150.8c-45.8,0-73-11.3-83.3-34.6c-1.9-4.5-2.8-9.8-3.4-13.9L7.4,100h53.6l0.2,1.7
			c0.2,1.7,1.3,4.5,2.8,6.1c2.3,2.7,9.6,7.2,33.8,7.2c27,0,29.3-4.3,29.3-8.3c0-5.3-4.6-6.8-27.3-9.2c-4.8-0.5-11.2-1.1-17-1.6
			c-5.1-0.5-9.8-0.9-12.6-1.2C27.5,90.9,8.5,77.7,8.5,52C8.5,25,41,7.5,91.2,7.5c41.1,0,67.5,10.8,78.5,32.1
			c3.1,5.8,4.7,12,5.2,15.8l0.3,2.2h-53.6l-0.2-1.8c-0.1-1.2-0.5-2.8-2.4-5.2c-3.7-4.9-14-7.5-29-7.5c-26.4,0-28.6,3.7-28.6,7.1
			c0,5,7.1,6.5,33.3,9.4c10.5,0.9,27.2,2.6,32.9,3.3c35.7,3.9,51.7,16.7,51.7,41.7C179.2,142.8,133.1,150.8,94.5,150.8z M12,104
			c0.6,3.4,1.4,7.3,2.8,10.6c9.6,21.6,35.6,32.2,79.7,32.2c26.8,0,47.3-3.7,61-11.1c13.1-7.1,19.8-17.5,19.8-31.1
			c0-22.8-14.4-34-48.1-37.7c-5.7-0.7-22.3-2.4-32.9-3.3c-27.5-3-36.9-4.6-36.9-13.4c0-9.3,11.5-11.1,32.6-11.1
			c16.8,0,27.6,3.1,32.2,9.1c1.5,1.9,2.4,3.6,2.9,5.4h45.5c-0.7-3.4-2.1-7.8-4.4-12.2c-10.3-19.9-35.5-29.9-74.9-29.9
			c-47.8,0-78.7,15.9-78.7,40.5c0,23.5,17.4,35.1,58.1,38.8c2.8,0.3,7.5,0.7,12.6,1.2c5.8,0.5,12.2,1.1,17,1.6
			c21.4,2.2,30.9,3.6,30.9,13.2c0,10.3-12.2,12.3-33.3,12.3c-19.8,0-32.1-2.9-36.8-8.6c-1.6-1.8-2.8-4.3-3.4-6.5H12z"/>
	</g>
	<g>
		<path class="st0" d="M276.9,150.7c-24.9,0-44.7-4.8-58.8-14.1c-15.6-10.4-23.5-25.9-23.5-46.2V9.8h50.6v80.6
			c0,13.8,12.2,21.7,33.6,21.7c20.4,0,33.1-8.3,33.1-21.6V9.7H362v84.9C362,130.3,331,150.7,276.9,150.7z M198.6,13.8v76.6
			c0,49,49.1,56.3,78.3,56.3c24.9,0,45.4-4.5,59.3-13.1c14.5-8.9,21.8-22.1,21.8-39V13.7h-42.1v76.8c0,15.6-14.6,25.6-37.1,25.6
			c-23.5,0-37.6-9.6-37.6-25.7V13.8H198.6z"/>
	</g>
	<g>
		<path class="st0" d="M506.4,148.8H384.5V9.8h118.6c17.8,0,30.7,4,38.4,11.8c6,6,9,14,9,23.8c0,9.4-2.3,17-7,22.6
			c-2.4,3-5.9,5.6-9.8,7.3c7.1,2.3,13.4,6.5,17.4,11.7c4.4,5.1,6.9,13,6.9,21.8c0,10.2-3,19.6-8.2,25.7
			C541.9,143.9,527.2,148.8,506.4,148.8z M388.5,144.8h117.9c19.6,0,33.2-4.4,40.4-13c4.6-5.4,7.2-13.8,7.2-23.1
			c0-7.8-2.2-14.8-5.9-19.2l-0.1-0.1c-4.8-6.2-13.5-10.8-22.6-11.9l-15.1-1.9l15-2.1c5.9-0.8,11.7-3.9,15-8.1
			c4-4.9,6.1-11.6,6.1-20.1c0-8.7-2.6-15.8-7.8-21c-6.8-6.9-19.1-10.6-35.6-10.6H388.5V144.8z M490.3,118.1h-60.7V91.6h61.2
			c7.9,0,12.8,1.2,15.9,3.8l0.2,0.1c2.3,2.4,3.5,5.5,3.5,9.5c0,3.9-0.9,6.8-2.8,8.9l-0.1,0.1C504.2,116.9,499.3,118.1,490.3,118.1z
			 M433.6,114.1h56.7c7.7,0,12-0.9,14.3-3c1.2-1.3,1.7-3.2,1.7-6.1c0-2.9-0.7-5-2.3-6.6c-2.3-1.9-6.6-2.8-13.2-2.8h-57.2V114.1z
			 M485.2,66.4h-55.7v-26H484c7.3,0,12,1.1,14.7,3.6c2.6,2.2,4,5.4,4,9.4c0,3.6-1.1,6.8-3.3,9.2l-0.1,0.1
			C496.6,65.2,492,66.4,485.2,66.4z M433.5,62.4h51.7c6.9,0,10-1.3,11.3-2.5c1.5-1.7,2.2-3.9,2.2-6.5c0-2.8-0.8-4.9-2.6-6.4L496,47
			c-1.9-1.7-5.8-2.6-12-2.6h-50.5V62.4z"/>
	</g>
</g>
<g>
	<g>
		<path class="st0" d="M95.5,307c-51.1,0-73.1-14.4-81.5-33.4c-1.9-4.5-2.8-10-3.3-13.4h49.5c0.3,2.1,1.5,5.2,3.3,7.2
			c4.1,5,15.7,7.9,35.3,7.9c25.3,0,31.3-3.6,31.3-10.3c0-7.2-6.2-8.8-29.1-11.2c-9.1-0.9-23.6-2.2-29.6-2.8
			c-43.7-4-59.9-17.5-59.9-40.8c0-24.1,28.6-42.5,80.7-42.5c46.3,0,67.8,13.8,76.7,31c2.8,5.2,4.5,11,5,15.1h-49.5
			c-0.2-1.9-0.9-3.8-2.8-6.2c-3.8-5-13.4-8.3-30.6-8.3c-24.3,0-30.6,2.9-30.6,9.1c0,6.9,8.1,8.4,35.1,11.4
			c10.5,0.9,27.2,2.6,32.9,3.3c34.9,3.8,49.9,16.2,49.9,39.7C178.2,291.5,150.3,307,95.5,307z"/>
	</g>
	<g>
		<path class="st0" d="M362.6,270.9c-10.8,23.2-35.8,36.1-83.1,36.1c-37.8,0-62.4-9.5-75.7-25.5c-9.1-10.7-13.8-25.5-13.8-44.4
			c0-17.2,4.3-31.5,12.9-42c13.8-17.2,38.5-27.5,77.4-27.5c53,0,75,18.9,83.1,39c2.8,7.1,3.6,15,3.8,19.3h-47.8
			c-0.2-3.1-1.4-7.1-3.4-10c-5-7.2-16-12.6-36.1-12.6c-18.2,0-31.5,4.6-37.5,14.1c-3.1,4.6-4.3,11.5-4.3,20.1
			c0,9.3,1.5,15.7,4.8,20.3c6.7,10,21.7,13.8,37.2,13.8c18.1,0,31-3.6,36.6-11.9c2.1-2.9,2.9-6.4,3.1-10h47.8
			C367,254.7,366,264.1,362.6,270.9z"/>
	</g>
	<g>
		<path class="st0" d="M539.6,236.5c-4.8,6.5-12.2,12-21.3,13.4l40.8,55h-51.3l-33.5-47.6h-41.8v47.6h-45.9v-135H494
			c21.3,0,35.3,5.2,43.3,13.8c6.2,6.4,9.1,15.1,9.1,27.3C546.4,221.5,543.9,230.4,539.6,236.5z M500.2,208.2
			c-2.4-4.5-7.2-5.7-14.4-5.7h-53.1v24.6h54c7.4,0,11.9-1.4,13.6-4.8c1.2-2.1,1.5-4.8,1.5-7.1C501.7,212.7,501.4,210,500.2,208.2z"
			/>
	</g>
	<g>
		<path class="st0" d="M574,304.9v-135h47.3v135H574z"/>
	</g>
	<g>
		<path class="st0" d="M767.8,304.9H647.9v-135h116.6c18.6,0,30.4,4.5,37,11.2c5.8,5.8,8.4,13.6,8.4,22.4s-2.1,16-6.5,21.3
			c-3.6,4.5-9.8,7.9-16.3,8.8c9.6,1.2,18.7,6,23.9,12.7c4.3,5,6.4,12.6,6.4,20.5c0,9.3-2.6,18.4-7.7,24.4
			C801.7,300.8,786.9,304.9,767.8,304.9z M758.9,203.6c-2.4-2.2-6.9-3.1-13.4-3.1H693v22h53.7c5.8,0,10.3-0.9,12.7-3.1
			c1.7-1.9,2.8-4.6,2.8-7.9S761.1,205.5,758.9,203.6z M769.7,263.1c0-3.4-0.9-6-2.9-8.1c-2.6-2.2-7.1-3.3-14.6-3.3H693v22.5h58.7
			c8.1,0,12.9-1,15.7-3.6C769,269,769.7,266.4,769.7,263.1z"/>
	</g>
	<g>
		<path class="st0" d="M837.1,304.9v-135h141v33.7h-95.6V221h92.9v32.9h-92.9v17.5h96.8v33.5H837.1z"/>
	</g>
</g>
</svg>
